<svg class="svg-icon" style="width: 1em; height: 1em;vertical-align: middle;fill: #B40B08;overflow: hidden;" viewBox="0 0 1024 1024" version="1.1" xmlns="http://www.w3.org/2000/svg"><path d="M513.484 19.963c-265.355 0-481.397 220.739-481.397 493.14 0 272.4 216.042 493.141 481.397 493.141 265.357 0 481.399-220.74 481.399-493.141 0.001-272.401-216.041-493.14-481.399-493.14z m116.243 871.215c-2.35 1.176-4.696 1.176-7.045 1.176-10.568 0-21.135-8.222-23.483-18.786l-11.74-59.883c-1.573-7.085-6.323-13.096-12.815-16.302l18.686-152.775c34.049-22.308 57.532-56.358 66.927-95.104l133.666-54.131c4.263 5.204 10.763 8.338 17.795 8.338h1.175l62.229-3.521h1.174c12.915 0 24.659 11.741 23.484 24.654-10.568 177.296-120.938 318.194-270.053 366.334z m15.264-360.461c-3.524 1.174-5.87 4.697-7.046 8.219-7.045 36.399-29.354 69.272-61.056 88.059-3.521 1.176-5.87 4.697-5.87 8.222l-19.96 159.682h-75.285l-19.822-159.682c-1.174-3.524-2.349-5.87-5.872-8.222-32.876-18.786-55.185-51.659-62.229-89.234-1.175-3.521-3.522-7.043-7.045-8.219l-137.439-56.074 20.291-74.108 153.545 20.989c3.523 0 7.044-1.175 9.392-3.524 23.483-22.309 54.011-35.224 86.887-35.224 32.878 0 64.578 12.915 88.062 36.399 2.35 2.349 4.695 3.522 8.22 3.522 0 0 1.174 0 1.174-1.173l154.718-20.999 20.341 74.292-141.006 57.075z m-427.39-27.007c7.098 0 13.654-3.188 17.915-8.479l130.027 53.096c9.394 38.748 32.876 72.799 66.926 95.107l19.598 153.519c-6.959 3.074-12.081 9.319-13.727 16.731l-11.742 59.883c-2.349 11.74-11.742 18.786-23.483 18.786-2.349 0-4.696 0-7.045-1.176-149.116-48.14-259.485-187.862-268.879-367.507-1.174-14.091 10.567-24.656 23.483-24.656h1.174l64.578 4.696h1.175z m556.545-143.245c-6.812 3.027-11.167 8.987-12.471 15.667l-148.388 20.732c-28.179-24.657-63.403-38.748-99.803-38.748-37.571 0-71.622 14.091-99.801 38.748l-146.865-20.826c-1.539-6.644-5.617-12.561-11.645-15.573l-57.533-28.179c-12.916-5.871-16.438-22.309-9.393-34.051 69.275-109.195 189.037-181.992 325.237-181.992 136.201 0 257.137 72.797 325.238 181.992 7.046 11.742 2.351 27.006-9.393 34.051l-55.183 28.179zM513.484 92.761c-7.865 0-15.693 0.258-23.482 0.711V44.057a452.694 452.694 0 0 1 46.967 0v49.417c-7.789-0.452-15.616-0.713-23.485-0.713z m0 890c-252.439 0-457.915-210.171-457.915-469.657 0-247.304 186.636-449.815 422.691-468.283V94.33c-125.979 10.953-240.114 80.291-309.974 190.992-7.045 11.741-9.394 24.656-5.871 37.572 3.522 12.916 12.916 23.483 24.658 29.353l57.533 28.18-26.273 95.957a9.63 9.63 0 0 0-0.842 2.665l-64.468-4.687h-3.522c-11.95 0-23.891 5.031-32.12 13.222 0.583-10.278 1.481-20.557 2.766-30.835 1.174-3.522-1.175-7.046-4.697-7.046-3.522-1.173-7.044 1.175-7.044 4.699-2.107 16.861-3.218 34.626-3.433 51.685-2.156 5.968-3.021 12.367-2.437 18.764 11.741 183.166 124.458 335.805 287.664 388.64 4.697 1.176 9.393 2.349 14.09 2.349 22.309 0 42.269-16.438 45.791-37.572l11.643-59.372c1.139 0.409 2.346 0.664 3.622 0.664 0 0 1.173 0 1.173-1.173h97.456l11.739 59.881c2.896 13.759 11.168 24.824 22.303 31.295a387.321 387.321 0 0 1-37.563 6.277c-2.349 1.173-4.698 3.523-4.698 7.046 0 2.349 3.523 4.694 5.87 4.694 20.034-2.287 39.79-6.264 59.265-11.768 0.206 0.002 0.41 0.027 0.617 0.027 4.695 0 9.394-1.173 14.09-2.349 164.38-52.835 277.099-204.301 287.665-387.467 1.174-12.916-3.522-25.831-12.915-35.224-9.395-9.393-21.135-15.264-34.05-15.264h-3.524l-62.228 3.521-24.682-90.132c0.243-1.269 0.271-2.556 0.022-3.799a10.1 10.1 0 0 0-1.414-5.151l54.251-26.548c11.741-5.872 21.136-16.438 24.659-29.354 0.097-0.363 0.175-0.729 0.265-1.094 10.214 19.65 18.847 40.072 25.565 60.976 1.174 2.347 3.523 3.522 5.87 3.522h2.35c2.349-1.175 4.695-3.522 3.521-7.045-10.227-29.652-23.124-57.521-38.693-84.387-1.207-3.385-2.79-6.604-4.751-9.545C789.753 175.717 675.684 105.376 548.71 94.332V44.821C784.767 63.288 971.402 265.8 971.402 513.104c0 259.486-205.475 469.657-457.918 469.657z"  /><path d="M559.278 514.279c0-24.659-21.134-45.793-45.794-45.793-24.656 0-45.791 21.134-45.791 45.793 0 24.656 19.96 45.791 45.791 45.791 25.831 0 45.794-21.134 45.794-45.791z m-45.794 37.573c-19.96 0-36.398-16.438-36.398-37.572 0-19.962 16.438-37.573 36.398-37.573 19.961 0 36.399 16.438 36.399 37.573 0.001 21.134-16.438 37.572-36.399 37.572zM481.784 569.463l-1.174-1.176c-8.219-5.87-18.786-2.347-23.483 5.872-5.871 9.393-2.348 19.96 5.871 24.657l1.173 1.175c3.523 1.174 5.872 2.347 9.395 2.347 5.87 0 11.742-3.521 14.089-8.219 5.869-9.392 2.347-19.96-5.871-24.656zM472.391 460.267c3.522 0 7.044-1.174 9.392-2.348l1.176-1.172c8.218-5.873 10.566-16.439 5.87-24.66-5.87-8.219-16.438-10.567-24.658-5.87l-1.173 1.175c-8.22 5.87-10.567 16.438-5.871 24.655 3.522 4.7 9.392 8.22 15.264 8.22zM545.189 457.919c3.521 1.173 5.87 2.348 9.391 2.348 5.873 0 11.743-3.52 14.089-8.219 4.7-9.393 2.351-19.96-5.87-24.655l-1.174-1.175c-8.221-4.697-18.785-1.175-23.48 7.044-4.7 8.22-1.175 19.961 7.044 24.657zM594.502 493.144c-9.394 0-17.612 8.219-17.612 17.611v2.349c0 10.567 8.219 17.613 17.612 17.613 9.392 0 17.611-8.221 17.611-18.786v-1.176c0-9.392-8.219-17.611-17.611-17.611zM432.469 494.317c-9.393 0-17.612 8.219-17.612 17.613v2.349c0 9.392 8.219 17.611 17.612 17.611 10.567 0 17.612-8.22 17.612-18.787v-1.173c0-9.394-8.219-17.613-17.612-17.613zM545.189 568.287l-1.176 1.176c-8.22 4.696-10.568 15.264-5.869 23.483 3.521 4.694 9.391 8.219 15.26 8.219 3.524 0 7.049 0 10.57-2.349 8.219-5.87 10.568-16.438 5.87-24.657-5.869-8.219-16.44-10.567-24.655-5.872zM124.844 407.431h1.175c2.347 0 4.696-2.348 5.87-3.522l1.174-3.522c1.174-2.348 0-5.872-3.522-7.044-2.349-1.175-5.871 0-7.045 3.522l-1.174 3.522c-1.175 2.347-0.001 5.871 3.522 7.044zM117.799 441.482c3.522 0 5.871-2.349 5.871-5.872 0-3.523 1.174-8.218 2.348-12.915 0-3.522-1.174-5.872-4.696-7.047-3.522 0-5.871 1.175-7.044 4.699 0 4.695-1.174 9.393-2.349 14.09-0.001 3.521 1.174 5.871 5.87 7.045zM473.565 915.835l-5.872-1.174c-3.523-1.175-7.044 1.174-7.044 4.695-1.174 3.523 1.174 7.046 4.697 7.046l7.045 1.175c3.522 0 5.87-1.175 5.87-5.87 1.174-2.351-1.175-5.872-4.696-5.872zM524.055 918.183h-28.182c-3.521 0-5.87 2.349-5.87 5.871 0 3.523 2.349 5.87 5.87 5.87h28.182c3.521 0 5.869-2.347 5.869-5.87s-2.349-5.871-5.869-5.871zM909.171 406.258c-1.174-3.524-3.521-5.872-7.044-4.698-3.521 1.174-5.871 3.524-4.695 7.044 1.174 4.699 2.349 10.569 3.521 15.265 1.175 2.349 3.524 4.697 5.873 4.697h1.172c3.523-1.173 5.873-3.522 4.698-7.045-1.175-4.697-2.349-10.568-3.525-15.263z"  /></svg>